<svg xmlns="http://www.w3.org/2000/svg" viewBox="0 0 625 220">
  <g>
    <g>
      <path d="M301.6,101.6H244.5a28.91,28.91,0,0,1,27.6-21.4c15.4,0,25.6,7.6,29.5,21.4m-57.4,19.6H328v-5.3c0-13.8-3.2-24.9-9.7-34.3-11.1-14.7-27.6-23.7-45.4-23.7-14.3,0-28.1,6.2-38.7,17.3-9.7,10.3-14.7,23.2-14.7,37.8a57,57,0,0,0,15.6,38.4c10.8,10.8,23.7,16.1,39.3,16.1,23.2,0,41.6-12.9,50.4-35.7H298.5c-5,8.5-14.3,12.9-24.9,12.9-17.1.6-28.2-8.8-29.4-23.5" style="fill: #fff"/>
      <path d="M365.8,114c0-17.9,12.9-31.3,29.9-31.3s30.4,14.3,30.4,30.8c0,17.3-12.9,30.8-31.7,30.8-15.1.1-28.6-13.3-28.6-30.3m-.9-44.6V27.5h-24V165.8h24v-8.5a50.45,50.45,0,0,0,32.5,11.1,53.38,53.38,0,0,0,34.3-12,56,56,0,0,0,19.6-42.8c0-15.2-6.2-30.4-17.9-40.7-9.7-9.4-22.3-13.8-36.1-13.8-12.7-.3-23,2.7-32.4,10.3" style="fill: #fff"/>
      <path d="M468,61.5h23.2V165.8H468Zm0-34h23.2V50.7H468Z" style="fill: #fff"/>
      <path d="M531.9,112.2a29.6,29.6,0,0,1,29.9-29.9c15.2,0,29.4,13.4,29.4,31.3,0,16.1-13.8,29.9-29,29.9-16.5,0-30.3-12.9-30.3-31.3m62,53.6h23.2V61.5H593.9V74c-7.1-10.3-17.9-15.2-33.1-15.2-15.6,0-28.1,5-38.7,16.1-9.7,10.3-14.7,23.7-14.7,38.4,0,31.3,23.2,54.8,53.9,54.8,16.1,0,26.7-4.4,32.5-15.2l.1,12.9Z" style="fill: #fff"/>
    </g>
    <polygon points="6 211.2 69.6 211.2 138.4 142.6 207 211.2 271.4 211.2 170.6 110.4 272.3 8.8 207.9 8.8 138.4 78.4 69.3 8.8 5.1 8.8 106.2 110.4 6 211.2" style="fill: #fff"/>
  </g>
</svg>
